<svg width="22" height="22" viewBox="0 0 22 22" fill="none" xmlns="http://www.w3.org/2000/svg">
<g opacity="0.6">
<path d="M2.86093 7.6201C2.71498 6.96262 2.73739 6.27894 2.92609 5.63244C3.1148 4.98593 3.46368 4.39754 3.9404 3.92182C4.41712 3.4461 5.00624 3.09844 5.65314 2.91109C6.30004 2.72374 6.98377 2.70276 7.64093 2.8501C8.00264 2.2844 8.50094 1.81886 9.08989 1.49638C9.67883 1.17391 10.3395 1.00488 11.0109 1.00488C11.6824 1.00488 12.343 1.17391 12.932 1.49638C13.5209 1.81886 14.0192 2.2844 14.3809 2.8501C15.0391 2.70212 15.724 2.72301 16.3719 2.91081C17.0199 3.09862 17.6098 3.44724 18.0868 3.92425C18.5638 4.40126 18.9124 4.99117 19.1002 5.6391C19.288 6.28703 19.3089 6.97193 19.1609 7.6301C19.7266 7.99181 20.1922 8.4901 20.5146 9.07905C20.8371 9.668 21.0061 10.3286 21.0061 11.0001C21.0061 11.6715 20.8371 12.3322 20.5146 12.9211C20.1922 13.5101 19.7266 14.0084 19.1609 14.3701C19.3083 15.0273 19.2873 15.711 19.0999 16.3579C18.9126 17.0048 18.5649 17.5939 18.0892 18.0706C17.6135 18.5473 17.0251 18.8962 16.3786 19.0849C15.7321 19.2736 15.0484 19.2961 14.3909 19.1501C14.0297 19.718 13.531 20.1855 12.9411 20.5094C12.3511 20.8333 11.689 21.0032 11.0159 21.0032C10.3429 21.0032 9.68076 20.8333 9.09081 20.5094C8.50086 20.1855 8.00217 19.718 7.64093 19.1501C6.98377 19.2974 6.30004 19.2765 5.65314 19.0891C5.00624 18.9018 4.41712 18.5541 3.9404 18.0784C3.46368 17.6027 3.1148 17.0143 2.92609 16.3678C2.73739 15.7213 2.71498 15.0376 2.86093 14.3801C2.29089 14.0193 1.82135 13.5203 1.49598 12.9293C1.17062 12.3384 1 11.6747 1 11.0001C1 10.3255 1.17062 9.66184 1.49598 9.07088C1.82135 8.47992 2.29089 7.98085 2.86093 7.6201Z" stroke="#656565" strokeLinecap="round" strokeLinejoin="round"/>
<path d="M15.011 7H9.01099C8.48055 7 7.97185 7.21071 7.59677 7.58579C7.2217 7.96086 7.01099 8.46957 7.01099 9C7.01099 9.53043 7.2217 10.0391 7.59677 10.4142C7.97185 10.7893 8.48055 11 9.01099 11H13.011C13.5414 11 14.0501 11.2107 14.4252 11.5858C14.8003 11.9609 15.011 12.4696 15.011 13C15.011 13.5304 14.8003 14.0391 14.4252 14.4142C14.0501 14.7893 13.5414 15 13.011 15H7.01099" stroke="#656565" strokeLinecap="round" strokeLinejoin="round"/>
<path d="M11.011 17V5" stroke="#656565" strokeLinecap="round" strokeLinejoin="round"/>
</g>
</svg>
