<svg width="29" height="27" viewBox="0 0 29 27" fill="none" xmlns="http://www.w3.org/2000/svg">
<g opacity="0.6" clipPath="url(#clip0_2023_871)">
<path d="M0 16.3661C0 18.5839 1.85951 20.3879 4.14439 20.3879H20.215C19.4764 21.1282 19.0698 22.1 19.0698 23.1328C19.0698 24.1655 19.4934 25.1796 20.2621 25.9255L21.1995 26.8351C21.3076 26.9401 21.4549 26.9995 21.6078 26.9995C21.7608 26.9995 21.908 26.9401 22.0162 26.8351L22.9536 25.9255C23.7222 25.1796 24.1459 24.1881 24.1459 23.1328C24.1459 22.8046 24.1051 22.4831 24.0253 22.1725C24.3447 22.2495 24.6766 22.2896 25.0148 22.2896C26.1017 22.2896 27.1241 21.879 27.8927 21.1326L28.8301 20.223C28.9383 20.118 28.9994 19.9751 28.9994 19.8267C28.9994 19.6783 28.9383 19.5354 28.8301 19.4304L27.8927 18.5207C27.1241 17.7749 26.1017 17.3637 25.0148 17.3637C23.9278 17.3637 22.9298 17.7655 22.164 18.4949V17.6523C22.164 15.8143 20.6234 14.3193 18.7294 14.3193H16.9831C15.9166 14.3193 15.0488 13.4772 15.0488 12.4422C15.0488 10.629 13.5286 9.1543 11.6606 9.1543H4.14439C1.85895 9.1543 0 10.9582 0 13.176V16.3656V16.3661ZM1.15547 13.1766C1.15547 11.5771 2.49615 10.2756 4.14496 10.2756H11.6617C12.8931 10.2756 13.8945 11.2473 13.8945 12.4422C13.8945 14.0956 15.2805 15.44 16.9843 15.44H18.7305C19.9873 15.44 21.0103 16.4321 21.0103 17.6523V19.2666H12.0089C11.0772 16.7943 6.69096 14.9613 1.15604 14.7617V13.1766H1.15547ZM1.15547 16.3661V15.8841C6.19139 16.0715 9.7099 17.627 10.7294 19.2671H4.14439C2.49615 19.2671 1.1549 17.9656 1.1549 16.3661H1.15547ZM22.991 23.1333C22.991 23.8885 22.688 24.5992 22.1374 25.1334L21.6084 25.6468L21.0794 25.1334C20.5288 24.5992 20.2258 23.8891 20.2258 23.1333C20.2258 22.3776 20.5288 21.6674 21.0794 21.1332L21.6084 20.6198L22.1374 21.1332C22.688 21.6674 22.991 22.3776 22.991 23.1333ZM27.0765 20.3406C26.5259 20.8748 25.7941 21.1689 25.0153 21.1689C24.2365 21.1689 23.5047 20.8748 22.9542 20.3406L22.4252 19.8272L22.9542 19.3139C23.5047 18.7796 24.2365 18.4855 25.0153 18.4855C25.7941 18.4855 26.5259 18.7796 27.0765 19.3139L27.6055 19.8272L27.0765 20.3406Z" fill="#656565"/>
<path d="M3.46308 11.8733C3.09831 11.8733 2.80151 12.1613 2.80151 12.5153C2.80151 12.8692 3.09831 13.1573 3.46308 13.1573C3.82784 13.1573 4.12464 12.8692 4.12464 12.5153C4.12464 12.1613 3.82784 11.8733 3.46308 11.8733Z" fill="#656565"/>
<path d="M10.3206 2.73568V3.11603C10.3206 3.42548 10.5794 3.67667 10.8983 3.67667C11.2172 3.67667 11.476 3.42548 11.476 3.11603V2.73568C11.476 2.42623 11.2172 2.17505 10.8983 2.17505C10.5794 2.17505 10.3206 2.42623 10.3206 2.73568Z" fill="#656565"/>
<path d="M7.6664 2.40908C7.6664 1.69894 8.26169 1.12127 8.99349 1.12127C9.4047 1.12127 9.78589 1.30155 10.0396 1.61649C10.2362 1.86053 10.5992 1.90341 10.8507 1.71213C11.1022 1.52141 11.1464 1.16909 10.9493 0.925045C10.4746 0.337479 9.7621 0 8.99349 0C7.66923 0 6.58456 1.01134 6.51489 2.27936C6.277 2.17768 6.01476 2.12051 5.73835 2.12051C4.67521 2.12051 3.8103 2.95982 3.8103 3.99149V4.49276C3.8103 4.80221 4.06915 5.0534 4.38804 5.0534C4.70692 5.0534 4.96577 4.80221 4.96577 4.49276V3.99149C4.96577 3.57816 5.31241 3.24178 5.73835 3.24178C6.16429 3.24178 6.51093 3.57816 6.51093 3.99149V7.84612C6.51093 8.15557 6.76978 8.40675 7.08866 8.40675C7.40755 8.40675 7.6664 8.15557 7.6664 7.84612V2.40908Z" fill="#656565"/>
</g>
<defs>
<clipPath id="clip0_2023_871">
<rect width="29" height="27" fill="white"/>
</clipPath>
</defs>
</svg>
