<svg width="15" height="15" viewBox="0 0 15 15" fill="none" xmlns="http://www.w3.org/2000/svg">
<g opacity="0.6" clip-path="url(#clip0_2023_911)">
<path d="M13.8465 4.48066C12.7244 2.90947 10.9583 1.88203 9.00114 1.66201C8.99934 1.66201 8.99755 1.66201 8.99575 1.66172C8.71298 1.52051 8.39338 1.44023 8.0549 1.44023H3.37161C3.20297 1.44023 3.06608 1.57412 3.06608 1.73906C3.06608 3.06064 3.7664 4.2252 4.82287 4.89668H2.80877C1.59684 4.89668 0.611059 3.93252 0.611059 2.74717C0.611059 1.56182 1.59684 0.597656 2.80877 0.597656H4.91932C5.08796 0.597656 5.22485 0.46377 5.22485 0.298828C5.22485 0.133887 5.08796 0 4.91932 0H2.80877C1.26016 0 0 1.23252 0 2.74717C0 4.26182 1.26016 5.49434 2.80877 5.49434H6.66504C6.74741 5.49961 6.83008 5.50254 6.91395 5.50254H8.0546C8.36402 5.50254 8.65787 5.43545 8.92176 5.31621C8.92625 5.31621 8.93075 5.3168 8.93524 5.3168H9.12065C9.62088 5.34639 10.1001 5.49639 10.5255 5.7542C9.95158 6.23613 9.58734 6.95039 9.58734 7.74639C9.58734 8.25176 10.0076 8.66279 10.5246 8.66279C11.0416 8.66279 11.4616 8.25176 11.4616 7.74639C11.4616 7.49707 11.5799 7.27441 11.7647 7.12881C11.9381 7.4877 12.0483 7.87822 12.0864 8.27256C12.0741 8.96016 11.9031 10.2272 10.9095 11.1079C10.3694 11.5866 9.79971 11.7768 9.17457 11.9218C8.87653 11.3886 7.95485 11.0637 7.43036 11.0637C6.74771 11.0637 6.19266 11.6068 6.19266 12.2742C6.19266 12.5537 6.29061 12.8197 6.46464 13.0318C6.29061 13.2439 6.19266 13.51 6.19266 13.7895C6.19266 14.4571 6.74801 15 7.43036 15C7.986 15 8.98736 14.6353 9.2207 14.0446L9.25335 14.0429C10.5369 13.974 11.7982 13.4751 12.8059 12.6378C13.8033 11.8087 14.5192 10.6775 14.8218 9.45234C15.2483 7.72441 14.9024 5.95898 13.8465 4.48066ZM7.24704 4.90488C7.22458 4.8999 7.20151 4.89668 7.17755 4.89668H6.68211C5.10654 4.78682 3.83889 3.56924 3.69152 2.0376H8.0549C8.86305 2.0376 9.52054 2.68066 9.52054 3.47109C9.52054 4.26152 8.86305 4.90459 8.0549 4.90459L7.24704 4.90488ZM10.8511 7.74639C10.8511 7.92217 10.7049 8.06543 10.5249 8.06543C10.3449 8.06543 10.1987 7.92246 10.1987 7.74639C10.1987 6.62813 11.1288 5.71846 12.2721 5.71846C12.4518 5.71846 12.5983 5.86143 12.5983 6.0375C12.5983 6.21357 12.4521 6.35654 12.2721 6.35654C11.4885 6.35654 10.8511 6.97998 10.8511 7.74639ZM8.65967 13.7895C8.65967 13.8703 8.53086 14.0238 8.2481 14.17C7.93897 14.3297 7.60768 14.4023 7.43036 14.4023C7.08469 14.4023 6.80342 14.1272 6.80342 13.7892C6.80342 13.5847 6.90736 13.3939 7.0814 13.2797C7.16586 13.2243 7.21649 13.1312 7.21649 13.0315C7.21649 12.9319 7.16586 12.8391 7.0814 12.7834C6.90736 12.6691 6.80342 12.4787 6.80342 12.2739C6.80342 11.9358 7.08469 11.6607 7.43036 11.6607C7.60768 11.6607 7.93897 11.7334 8.2481 11.8931C8.53086 12.0393 8.65967 12.1928 8.65967 12.2736V13.7895ZM14.2281 9.3123C13.6626 11.6024 11.6284 13.2943 9.27072 13.4432V12.5139C9.97674 12.3524 10.6645 12.1321 11.3202 11.5512C12.4926 10.512 12.6867 9.04688 12.6977 8.26582C12.6977 8.25557 12.6977 8.24531 12.6965 8.23506C12.6561 7.79385 12.5384 7.35645 12.3533 6.95068C12.8322 6.91025 13.2094 6.5165 13.2094 6.03779C13.2094 5.53242 12.7891 5.12139 12.2721 5.12139C11.8426 5.12139 11.4364 5.2207 11.076 5.39678C10.6438 5.08945 10.1562 4.88115 9.63976 4.78184C9.94588 4.42793 10.131 3.9709 10.131 3.47197C10.131 3.08877 10.022 2.73018 9.83266 2.42402C11.2498 2.79346 12.4989 3.63838 13.345 4.82344C14.2994 6.15938 14.613 7.75312 14.2281 9.3123Z" fill="#656565"/>
<path d="M5.78115 2.53442C5.56518 2.53442 5.38965 2.7061 5.38965 2.91733C5.38965 3.12856 5.56548 3.30024 5.78115 3.30024C5.99681 3.30024 6.17264 3.12856 6.17264 2.91733C6.17264 2.7061 5.99711 2.53442 5.78115 2.53442Z" fill="#656565"/>
<path d="M6.58824 0.597656H7.17714C7.34578 0.597656 7.48267 0.46377 7.48267 0.298828C7.48267 0.133887 7.34578 0 7.17714 0H6.58824C6.4196 0 6.28271 0.133887 6.28271 0.298828C6.28271 0.46377 6.4196 0.597656 6.58824 0.597656Z" fill="#656565"/>
</g>
<defs>
<clipPath id="clip0_2023_911">
<rect width="15" height="15" fill="white"/>
</clipPath>
</defs>
</svg>
