<svg width="21" height="21" viewBox="0 0 21 21" fill="none" xmlns="http://www.w3.org/2000/svg">
<g opacity="0.6">
<path d="M6.9 18.0079C8.80858 18.9869 11.0041 19.2521 13.0909 18.7556C15.1777 18.2592 17.0186 17.0337 18.2818 15.3C19.545 13.5664 20.1474 11.4386 19.9806 9.30002C19.8137 7.16147 18.8886 5.15283 17.3718 3.63605C15.855 2.11928 13.8464 1.19411 11.7078 1.02728C9.56929 0.860441 7.44147 1.46291 5.70782 2.72611C3.97417 3.98931 2.74869 5.83017 2.25222 7.91697C1.75575 10.0038 2.02094 12.1993 3 14.1079L1 20.0079L6.9 18.0079Z" stroke="#656565" strokeWidth="1.5" strokeLinecap="round" strokeLinejoin="round"/>
<path d="M7 10.0078H7.01" stroke="#656565" strokeWidth="1.5" strokeLinecap="round" strokeLinejoin="round"/>
<path d="M11 10.0078H11.01" stroke="#656565" strokeWidth="1.5" strokeLinecap="round" strokeLinejoin="round"/>
<path d="M15 10.0078H15.01" stroke="#656565" strokeWidth="1.5" strokeLinecap="round" strokeLinejoin="round"/>
</g>
</svg>
